# xmcd
#
# Track frame offsets:
#	150
#	21565
#	39134
#	57994
#	75300
#	97655
#	110099
#	127880
#	148127
#	166960
#	184649
#	201119
#	217146
#	234347
#	253691
#	266443
#	284499
#	302296
#	319202
#	337016
#
# Disc length: 4706
#
# Revision: 4
# Processed by: cddbd v1.5.1PL0 Copyright (c) Steve Scherf et al.
# Submitted via: EasyCDDAExtractor 5.1.0
# Normalized: r3:DSETVAR1
#
DISCID=1a126014
DTITLE=Various Artist - 25
DYEAR=1900
DGENRE=
TTITLE0=ADRIANO CELENTANO - Ia Teblia Liubliu
TTITLE1=KYLIE MINOGUE and NICK CAVE - Where The Wild Roses Grow
TTITLE2=CHRIS DE BURGH - The Lady In Red
TTITLE3=ELTON JOHN - Daniel
TTITLE4=MARY HOPKIN - Those Were The Days
TTITLE5=YELLO - Capri Calling
TTITLE6=LIONEL RICHIE - Say You,Say Me
TTITLE7=BONEY M - Still I'm Sad
TTITLE8=JULIO IGLESIAS - Mammy Blue
TTITLE9=REDNEX - Wish You Were Here
TTITLE10=METISSE - Boom Boom Ba
TTITLE11=SECRET SERVICE - Broken Hearts
TTITLE12=VACUUM - Power
TTITLE13=ANNIE LENNOX - Love Song For A Vampire
TTITLE14=CHRIS ISAAK - Only The Lonely
TTITLE15=SHIVAREE - Goodnight Moon
TTITLE16=WHITNEY HOUSTON - I Will Always Love You
TTITLE17=MADONNA - Time Stood Still
TTITLE18=GORGE MICHAEL - Mother's Pride
TTITLE19=ALL STARS DISCO - Into The The Night (from"Twin Piks")
EXTD=
EXTT0=
EXTT1=
EXTT2=
EXTT3=
EXTT4=
EXTT5=
EXTT6=
EXTT7=
EXTT8=
EXTT9=
EXTT10=
EXTT11=
EXTT12=
EXTT13=
EXTT14=
EXTT15=
EXTT16=
EXTT17=
EXTT18=
EXTT19=
PLAYORDER=
